<?xml version="1.0" encoding="UTF-8" standalone="no"?>
<!-- Uploaded to: SVG Repo, www.svgrepo.com, Generator: SVG Repo Mixer Tools -->

<svg
   fill="#000000"
   height="800px"
   width="800px"
   version="1.1"
   id="Layer_1"
   viewBox="0 0 502 502"
   xml:space="preserve"
   sodipodi:docname="printer.svg"
   inkscape:version="1.3.2 (091e20e, 2023-11-25, custom)"
   xmlns:inkscape="http://www.inkscape.org/namespaces/inkscape"
   xmlns:sodipodi="http://sodipodi.sourceforge.net/DTD/sodipodi-0.dtd"
   xmlns="http://www.w3.org/2000/svg"
   xmlns:svg="http://www.w3.org/2000/svg"><defs
   id="defs9">
			
			
			
			
			
			
			
		
	
</defs><sodipodi:namedview
   id="namedview9"
   pagecolor="#ffffff"
   bordercolor="#000000"
   borderopacity="0.25"
   inkscape:showpageshadow="2"
   inkscape:pageopacity="0.0"
   inkscape:pagecheckerboard="0"
   inkscape:deskcolor="#d1d1d1"
   inkscape:zoom="0.78754018"
   inkscape:cx="201.89446"
   inkscape:cy="406.96336"
   inkscape:window-width="1920"
   inkscape:window-height="1129"
   inkscape:window-x="-8"
   inkscape:window-y="-8"
   inkscape:window-maximized="1"
   inkscape:current-layer="Layer_1" />

<g
   id="g10"
   transform="matrix(0.88667246,0,0,0.905455,24.45984,25.593682)"
   style="stroke-width:26.61229208;stroke-dasharray:none"><rect
     style="fill:none;fill-opacity:1;stroke:#000000;stroke-width:26.61229208;stroke-linecap:round;stroke-linejoin:round;stroke-dasharray:none;stroke-dashoffset:0;stroke-opacity:1"
     id="rect9"
     width="474.88373"
     height="219.9126"
     x="13.545345"
     y="172.10553" /><rect
     style="fill:#f7f2f2;fill-opacity:1;stroke:#000000;stroke-width:26.61229208;stroke-linecap:round;stroke-linejoin:round;stroke-dasharray:none;stroke-dashoffset:0;stroke-opacity:1"
     id="rect9-7-4"
     width="383.95563"
     height="171.21407"
     x="59.181286"
     y="308.25415" /><rect
     style="fill:none;fill-opacity:1;stroke:#000000;stroke-width:26.61229208;stroke-linecap:round;stroke-linejoin:round;stroke-dasharray:none;stroke-dashoffset:0;stroke-opacity:1"
     id="rect9-7"
     width="384.83163"
     height="151.37367"
     x="60.445049"
     y="19.801346" /><g
     id="g8"
     style="stroke-width:26.61229208;stroke-dasharray:none">
		<path
   d="m 423,268.5 c 15.99,0 29,-13.01 29,-29 0,-15.99 -13.01,-29 -29,-29 -15.99,0 -29,13.01 -29,29 0,15.99 13.01,29 29,29 z m 0,-38 c 4.963,0 9,4.037 9,9 0,4.963 -4.037,9 -9,9 -4.963,0 -9,-4.037 -9,-9 0,-4.963 4.037,-9 9,-9 z"
   id="path2"
   style="stroke-width:26.61229208;stroke-dasharray:none" /><path
   d="m 316,248.5 h 47 c 5.522,0 10,-4.478 10,-10 0,-5.522 -4.478,-10 -10,-10 h -47 c -5.522,0 -10,4.478 -10,10 0,5.522 4.478,10 10,10 z"
   id="path3"
   style="stroke-width:26.61229208;stroke-dasharray:none" /><path
   d="m 367,362.5 h 24 c 5.522,0 10,-4.478 10,-10 0,-5.522 -4.478,-10 -10,-10 h -24 c -5.522,0 -10,4.478 -10,10 0,5.522 4.478,10 10,10 z"
   id="path4"
   style="stroke-width:26.61229208;stroke-dasharray:none" /><path
   d="m 111,362.5 h 215 c 5.522,0 10,-4.478 10,-10 0,-5.522 -4.478,-10 -10,-10 H 111 c -5.522,0 -10,4.478 -10,10 0,5.522 4.478,10 10,10 z"
   id="path5"
   style="stroke-width:26.61229208;stroke-dasharray:none" /><path
   d="m 111,403.5 h 280 c 5.522,0 10,-4.478 10,-10 0,-5.522 -4.478,-10 -10,-10 H 111 c -5.522,0 -10,4.478 -10,10 0,5.522 4.478,10 10,10 z"
   id="path6"
   style="stroke-width:26.61229208;stroke-dasharray:none" /><path
   d="m 111,443.5 h 280 c 5.522,0 10,-4.478 10,-10 0,-5.522 -4.478,-10 -10,-10 H 111 c -5.522,0 -10,4.478 -10,10 0,5.522 4.478,10 10,10 z"
   id="path7"
   style="stroke-width:26.61229208;stroke-dasharray:none" />
	</g></g></svg>
