<?xml version="1.0" encoding="UTF-8" standalone="no"?>
<svg
   xmlns:dc="http://purl.org/dc/elements/1.1/"
   xmlns:cc="http://creativecommons.org/ns#"
   xmlns:rdf="http://www.w3.org/1999/02/22-rdf-syntax-ns#"
   xmlns:svg="http://www.w3.org/2000/svg"
   xmlns="http://www.w3.org/2000/svg"
   xmlns:sodipodi="http://sodipodi.sourceforge.net/DTD/sodipodi-0.dtd"
   xmlns:inkscape="http://www.inkscape.org/namespaces/inkscape"
   inkscape:version="1.0.2-2 (e86c870879, 2021-01-15)"
   sodipodi:docname="playground.svg"
   xml:space="preserve"
   viewBox="0 0 32 32"
   height="32"
   width="32"
   y="0px"
   x="0px"
   id="Layer_1"
   version="1.1"><metadata
   id="metadata9"><rdf:RDF><cc:Work
       rdf:about=""><dc:format>image/svg+xml</dc:format><dc:type
         rdf:resource="http://purl.org/dc/dcmitype/StillImage" /><dc:title /></cc:Work></rdf:RDF></metadata><defs
   id="defs7"><inkscape:path-effect
     lpeversion="1"
     is_visible="true"
     id="path-effect860"
     effect="spiro" /><inkscape:path-effect
     only_selected="false"
     apply_with_weight="true"
     apply_no_weight="true"
     helper_size="0"
     steps="2"
     weight="33.333333"
     lpeversion="1"
     is_visible="true"
     id="path-effect854"
     effect="bspline" /><inkscape:path-effect
     effect="attach_path"
     id="path-effect838"
     lpeversion="1"
     is_visible="true"
     startpath=""
     startposition="0"
     startcurvestart="0,0 , 20,0"
     startcurveend="0,0 , 20,0"
     endpath=""
     endposition="0"
     endcurvestart="0,0 , 20,0"
     endcurveend="0,0 , 20,0" /><clipPath
     id="clipPath874"
     clipPathUnits="userSpaceOnUse"><g
       inkscape:label="Clip"
       id="use876"><path
         sodipodi:nodetypes="cacccc"
         id="path878"
         d="m 5.4282885,7.0740908 c 0,0 -0.1739278,0.3267831 -0.1787463,0.5054156 -0.066472,2.4642656 2.0863785,7.0950846 2.0863785,7.0950846 l 1.239175,-5.44e-4 C 8.7664518,12.612407 12.472684,8.7628052 10.863911,7.0819156 Z"
         style="color:#000000;font-style:normal;font-variant:normal;font-weight:normal;font-stretch:normal;font-size:medium;line-height:normal;font-family:sans-serif;font-variant-ligatures:normal;font-variant-position:normal;font-variant-caps:normal;font-variant-numeric:normal;font-variant-alternates:normal;font-variant-east-asian:normal;font-feature-settings:normal;font-variation-settings:normal;text-indent:0;text-align:start;text-decoration:none;text-decoration-line:none;text-decoration-style:solid;text-decoration-color:#000000;letter-spacing:normal;word-spacing:normal;text-transform:none;writing-mode:lr-tb;direction:ltr;text-orientation:mixed;dominant-baseline:auto;baseline-shift:baseline;text-anchor:start;white-space:normal;shape-padding:0;shape-margin:0;inline-size:0;clip-rule:nonzero;display:inline;overflow:visible;visibility:visible;isolation:auto;mix-blend-mode:normal;color-interpolation:sRGB;color-interpolation-filters:linearRGB;solid-color:#000000;solid-opacity:1;vector-effect:none;fill:#ffffff;fill-opacity:1;fill-rule:evenodd;stroke:none;stroke-width:0;stroke-linecap:round;stroke-linejoin:round;stroke-miterlimit:4;stroke-dasharray:none;stroke-dashoffset:0;stroke-opacity:1;paint-order:stroke markers fill;color-rendering:auto;image-rendering:auto;shape-rendering:auto;text-rendering:auto;enable-background:accumulate;stop-color:#000000;stop-opacity:1" /></g></clipPath></defs><sodipodi:namedview
   inkscape:document-rotation="0"
   inkscape:current-layer="Layer_1"
   inkscape:window-maximized="1"
   inkscape:window-y="-8"
   inkscape:window-x="-8"
   inkscape:cy="15.282581"
   inkscape:cx="-3.4916441"
   inkscape:zoom="15.982855"
   inkscape:snap-nodes="false"
   showgrid="false"
   id="namedview5"
   inkscape:window-height="1017"
   inkscape:window-width="1920"
   inkscape:pageshadow="2"
   inkscape:pageopacity="0"
   guidetolerance="10"
   gridtolerance="10"
   objecttolerance="10"
   borderopacity="1"
   bordercolor="#666666"
   pagecolor="#ffffff" />
	<path
   id="path2-3"
   d="M 28.177178,31.99974 C 30.289857,31.99974 32,30.293564 32,28.180665 V 3.8232231 C 32,1.7103211 30.289857,0 28.177178,0 H 3.8228194 C 1.7101399,0 0,1.7103211 0,3.8232231 V 28.180922 C 0,30.293826 1.7101399,32 3.8228194,32 H 28.177178 Z"
   style="fill:#ffffff;stroke-width:0.259048"
   inkscape:connector-curvature="0" /><path
   id="path4"
   d="m 4.3910192,1.1439749 c -1.6770887,0 -3.0419862,1.3799106 -3.0419862,3.0754442 V 27.809114 c 0,1.695534 1.3648975,3.073437 3.0419862,3.073437 H 27.722351 c 1.679073,0 3.041987,-1.377903 3.041987,-3.073437 V 4.2196699 c 2e-6,-1.6955338 -1.362912,-3.0754441 -3.041987,-3.0754441 H 4.3900256 Z"
   style="fill:#adfba5;fill-opacity:1;stroke-width:0.249524"
   inkscape:connector-curvature="0" />
<g
   id="g894"
   transform="matrix(1.396791,0,0,1.1375066,-1.012287,-2.3804664)"
   style="stroke:#183100;stroke-opacity:1"><rect
     style="fill:#d4aa00;fill-opacity:1;stroke:#183100;stroke-width:0.586193;stroke-miterlimit:4;stroke-dasharray:none;stroke-opacity:1"
     id="rect843"
     width="3.2944384"
     height="10.305489"
     x="7.4921842"
     y="16.94458" /><path
     id="path845"
     style="fill:#008000;fill-opacity:1;stroke:#183100;stroke-width:0.503;stroke-miterlimit:4;stroke-dasharray:none;stroke-opacity:1"
     d="m 4.4314413,19.108094 a 4.1109476,4.361342 38.43412 0 0 4.9626715,-0.03876 4.1109476,4.361342 38.43412 0 0 0.2614012,0.229878 4.1109476,4.361342 38.43412 0 0 5.931564,-0.86067 A 4.1109476,4.361342 38.43412 0 0 15.077643,12.466551 4.1109476,4.361342 38.43412 0 0 12.390674,11.623359 4.1109476,4.361342 38.43412 0 0 11.69495,5.9049717 4.1109476,4.361342 38.43412 0 0 5.7633862,6.7656405 4.1109476,4.361342 38.43412 0 0 5.4361795,11.821874 4.1109476,4.361342 38.43412 0 0 3.8623386,13.08876 a 4.1109476,4.361342 38.43412 0 0 0.5094353,5.97199 4.1109476,4.361342 38.43412 0 0 0.059666,0.04735 z" /></g><rect
   style="fill:#d4aa00;fill-opacity:1;stroke:#183100;stroke-width:0.452577;stroke-miterlimit:4;stroke-dasharray:none;stroke-opacity:1"
   id="rect888-8-5"
   width="11.864546"
   height="1.3713979"
   x="15.87254"
   y="19.584185" /><rect
   style="fill:#d4aa00;fill-opacity:1;stroke:#183100;stroke-width:0.452577;stroke-miterlimit:4;stroke-dasharray:none;stroke-opacity:1"
   id="rect888-8-5-9"
   width="11.864546"
   height="1.3713979"
   x="15.87254"
   y="21.562067" /><rect
   style="fill:#d4aa00;fill-opacity:1;stroke:#183100;stroke-width:0.415088;stroke-miterlimit:4;stroke-dasharray:none;stroke-opacity:1"
   id="rect888"
   width="1.3907399"
   height="9.8415594"
   x="20.179132"
   y="16.060946"
   transform="rotate(7.6307058)" /><rect
   style="fill:#d4aa00;fill-opacity:1;stroke:#183100;stroke-width:0.423;stroke-miterlimit:4;stroke-dasharray:none;stroke-opacity:1"
   id="rect888-8"
   width="1.4454263"
   height="9.8336468"
   x="20.211353"
   y="22.996517"
   transform="rotate(-10.640906)" /><path
   id="rect888-8-5-7"
   style="fill:#d4aa00;fill-opacity:1;stroke:#183100;stroke-width:0.429574;stroke-miterlimit:4;stroke-dasharray:none;stroke-opacity:1"
   d="m 17.093074,23.827324 h 9.644679 l 0.971564,1.265046 H 16.12151 Z"
   sodipodi:nodetypes="ccccc" /><path
   id="rect888-8-5-7-0"
   style="fill:#d4aa00;fill-opacity:1;stroke:#183100;stroke-width:0.496981;stroke-miterlimit:4;stroke-dasharray:none;stroke-opacity:1"
   d="M 15.834918,25.644901 H 27.95167 l 1.229077,1.346182 H 14.605841 Z"
   sodipodi:nodetypes="ccccc" /></svg>
